PathFileType	4	(X/Y/Z)	C:/Users/beibeiliu/ov580/test_trc/User1\sequence.33_training_dense_left.trc
DataRate	CameraRate	NumFrames	NumMarkers	Units	OrigDataRate	OrigDataStartFrame	OrigNumFrames
120	120	15	19	mm	120	66	260
Frame#	Time	ThumbCMC			ThumbMCP			ThumbIP			ThumbTip			IndexMCP			IndexPIP			IndexTip			MiddleMCP			MiddlePIP			MiddleTip			RingMCP			RingPIP			RingTip			PinkyMCP			PinkyPIP			PinkyTip			BackHand1			BackHand2			BackHand3	
		X0	Y0	Z0	X1	Y1	Z1	X2	Y2	Z2	X3	Y3	Z3	X4	Y4	Z4	X5	Y5	Z5	X6	Y6	Z6	X7	Y7	Z7	X8	Y8	Z8	X9	Y9	Z9	X10	Y10	Z10	X11	Y11	Z11	X12	Y12	Z12	X13	Y13	Z13	X14	Y14	Z14	X15	Y15	Z15	X16	Y16	Z16	X17	Y17	Z17	X18	Y18	Z18	
65	0.541667	-126.276	-23.0166	40.6454	-97.9701	-41.7411	21.5165	-83.8662	-54.8719	7.46999	-70.9333	-70.3886	-9.21436	-136.722	-51.5273	-34.8672	-115.243	-77.8943	-46.0608	-91.0671	-96.958	-35.0103	-149.424	-74.1842	-37.0342	-125.214	-99.4741	-41.9532	-100.728	-114.342	-24.6373	-161.571	-91.8237	-24.3854	-137.344	-113.46	-32.7911	-112.976	-125.262	-19.5851	-176.56	-105.466	-1.70705	-166.695	-125.581	-12.7316	-142.297	-132.474	-28.9111	-185.882	-57.4725	28.3551	-193.001	-47.8004	55.7609	-169.861	-25.8354	31.8951	
66	0.55	-124.987	-21.0295	40.8077	-96.6705	-37.4731	24.2393	-83.7559	-53.7155	3.72334	-69.5019	-68.823	-11.1948	-135.904	-49.5363	-34.2743	-114.733	-73.7429	-46.4315	-90.1363	-92.4689	-34.7104	-149.743	-75.4518	-36.3251	-124.908	-92.6003	-44.5376	-95.8137	-110.814	-22.865	-161.247	-92.8624	-23.2896	-138.074	-114.622	-32.2019	-112.345	-121.714	-21.6489	-177.59	-103.888	2.75987	-164.522	-121.289	-13.8913	-141.91	-135.11	-25.3821	-186.047	-56.291	28.4636	-190.143	-48.6882	57.1818	-169.704	-24.2786	32.6883	
67	0.558333	-125.482	-18.1804	40.4745	-97.9696	-36.2694	24.4153	-82.9632	-50.6213	1.88558	-74.598	-69.0402	-13.3871	-137.51	-50.8402	-33.445	-115.417	-70.7237	-45.2922	-90.6055	-88.6681	-35.6321	-150.177	-73.8563	-33.6068	-122.837	-94.0256	-41.9505	-96.6528	-108.547	-23.7023	-161.165	-91.4659	-22.3834	-133.598	-111.719	-31.4143	-107.86	-118.606	-19.4265	-174.79	-106.517	-0.0171716	-161.094	-123.182	-14.8747	-135.005	-130.331	-26.9213	-187.313	-57.0331	28.5469	-188.501	-47.9321	57.0673	-169.587	-24.4211	32.7851	
68	0.566667	-125.848	-16.5694	42.1758	-97.3203	-33.7644	23.9913	-87.0011	-48.0798	4.40731	-72.8444	-64.8374	-12.8593	-135.194	-48.909	-35.4557	-111.829	-71.3475	-45.7851	-91.4456	-88.48	-32.7948	-150.386	-72.4509	-34.4962	-124.576	-91.6643	-41.2908	-94.2794	-102.36	-24.5718	-160.643	-87.7757	-21.8883	-133.867	-108.394	-31.5515	-109.244	-118.084	-19.2122	-174.933	-106.144	2.36181	-159.935	-120.086	-15.6757	-136.077	-125.916	-28.5758	-185.525	-57.334	25.6304	-191.676	-48.2865	58.7378	-170.08	-25.5984	32.5875	
69	0.575	-129.664	-16.0762	43.2316	-100.605	-32.1061	20.9113	-86.8845	-44.6725	0.530842	-73.3891	-59.7671	-13.4207	-133.825	-43.3997	-36.5682	-111.401	-67.0571	-44.7543	-89.9422	-83.432	-31.9387	-147.825	-72.1535	-35.3033	-123.064	-89.183	-41.1404	-90.8366	-99.1343	-21.9138	-160.289	-89.8027	-21.0176	-135.325	-107.173	-31.3707	-106.242	-111.421	-20.24	-173.605	-104.842	1.29703	-159.149	-117.541	-15.5455	-138.124	-126.6	-28.0323	-187.575	-56.1772	29.8608	-190.636	-47.2052	63.1369	-171.104	-23.2209	33.8429	
70	0.583333	-129.348	-10.4217	41.2683	-104.791	-28.7582	21.6659	-88.5561	-41.0889	-0.630864	-75.9624	-55.0498	-16.7755	-135.602	-40.586	-37.343	-114.661	-58.0564	-47.115	-87.5126	-79.2392	-31.3336	-147.237	-64.7128	-34.5104	-120.974	-84.2978	-40.8412	-89.3748	-90.8797	-24.3996	-160.448	-87.0534	-21.4803	-128.408	-101.844	-32.3879	-100.299	-107.307	-17.2847	-170.967	-104.306	0.762418	-158.474	-118.568	-12.1685	-131.436	-122.046	-29.5902	-187.491	-56.8851	27.2664	-187.816	-42.4432	60.4805	-172.294	-20.6854	33.9038	
71	0.591667	-133.338	-7.19141	36.5997	-104.107	-20.335	21.6734	-92.7348	-35.6238	-1.65182	-76.2267	-48.5953	-18.1644	-139.115	-42.6982	-36.1472	-112.644	-58.1338	-45.5645	-86.1207	-72.113	-31.3374	-148.493	-63.6506	-35.019	-117.795	-77.3353	-42.0406	-84.6612	-85.8434	-22.8524	-155.319	-84.4065	-23.8623	-130.416	-97.874	-32.5285	-97.2506	-101.277	-17.2291	-168.041	-100.097	4.69601	-151.906	-114.73	-13.2902	-127.74	-120.297	-30.8996	-186.275	-56.9225	25.6575	-190.335	-44.3321	58.9908	-174.153	-17.3313	30.4089	
72	0.6	-137.967	-0.94244	39.1833	-109.046	-13.9553	18.3902	-93.5609	-25.2969	-4.7703	-82.3571	-41.5775	-20.491	-142.065	-39.9938	-37.8626	-116.651	-54.7457	-47.1091	-88.3525	-62.0685	-36.0262	-146.669	-65.8176	-35.4747	-114.575	-77.3396	-40.0997	-84.8085	-79.7971	-24.1971	-153.856	-84.9174	-22.3944	-122.941	-94.1713	-32.9412	-93.0014	-91.2923	-19.3963	-162.603	-96.9761	2.52684	-146.947	-113.052	-11.9264	-122.845	-119.866	-28.4463	-187.603	-58.4354	29.114	-191.101	-43.3777	61.7242	-179.17	-19.8928	32.5418	
73	0.608333	-147.3	1.50719	36.5765	-118.735	-9.78742	12.1468	-101.33	-21.6678	-10.9751	-84.4051	-31.4493	-23.1935	-147.391	-37.1297	-38.2836	-118.233	-47.3339	-50.7604	-87.5362	-54.6412	-36.8314	-147.716	-62.2706	-34.992	-117.292	-71.3151	-42.204	-80.8652	-69.2113	-25.7438	-151.793	-82.4303	-21.1332	-117.391	-88.18	-32.3721	-88.6116	-82.8471	-19.2902	-154.384	-99.7157	1.77805	-136.724	-112.342	-10.4684	-112.26	-107.934	-28.5001	-184.139	-59.3359	26.7643	-190.119	-51.9801	59.3581	-183.627	-23.7285	29.8437	
74	0.616667	-155.991	1.0557	32.9612	-123.788	-1.63613	8.52419	-107.451	-15.8787	-14.4277	-89.6466	-22.51	-27.4915	-151.34	-38.956	-38.7761	-122.684	-46.1952	-50.6061	-91.5638	-42.4642	-43.1581	-146.648	-63.6933	-36.2894	-115.59	-66.1139	-42.7463	-83.6406	-56.0029	-32.8282	-148.484	-80.7911	-19.3851	-112.558	-85.5753	-32.0085	-89.7424	-75.1847	-23.705	-147.12	-99.2218	6.94714	-131.258	-105.28	-8.29839	-107.146	-100.835	-26.7074	-180.263	-64.7947	33.693	-189.904	-49.0978	61.6668	-187.906	-25.2807	30.6723	
75	0.625	-162.627	4.9395	28.8582	-131.201	-0.0484326	6.23632	-115.025	-7.22624	-15.3951	-96.3016	-15.7102	-30.0261	-155.798	-42.792	-38.3827	-124.213	-44.1465	-50.8581	-96.5906	-34.502	-47.1262	-148.863	-63.1464	-34.7286	-116.455	-62.4698	-43.9468	-83.0488	-46.5878	-33.1395	-142.117	-82.7328	-17.1772	-113.357	-78.313	-33.0695	-83.0629	-64.4787	-24.9321	-142.078	-93.5312	9.66689	-123.042	-103.51	-5.50979	-102.471	-94.3674	-26.9818	-178.965	-64.1479	29.1708	-187.77	-49.6391	64.8425	-192.205	-29.5525	34.4458	
76	0.633333	-168.234	5.17623	25.2364	-137.662	5.34931	4.06605	-121.762	-6.44785	-17.5343	-102.572	-8.61569	-34.9198	-161.52	-38.3997	-39.7254	-131.186	-39.234	-55.0606	-101.699	-31.9905	-48.4121	-147.878	-63.2197	-35.4553	-116.899	-59.5483	-45.0884	-88.6677	-40.7463	-39.106	-142.343	-78.302	-17.8232	-109.006	-76.2901	-31.5856	-86.2624	-60.6227	-27.807	-136.603	-93.9962	10.9167	-119.275	-99.8465	-4.6682	-96.713	-90.9672	-27.9732	-176.698	-63.6364	35.3839	-185.067	-55.8334	64.204	-193.943	-33.7406	31.1523	
77	0.641667	-172.711	3.64964	29.4285	-143.758	4.59653	3.54043	-126.359	0.679093	-19.6347	-109.947	-2.92071	-35.4711	-162.633	-41.6518	-37.9443	-133.766	-39.4667	-54.6978	-103.108	-28.5717	-50.7424	-150.771	-61.4002	-34.2152	-121.934	-55.436	-46.1499	-90.6376	-38.1401	-38.6743	-139.596	-77.8387	-16.7945	-108.979	-72.6738	-31.3072	-85.138	-54.3327	-30.6613	-136.43	-91.6278	9.94797	-117.662	-97.2902	-6.46858	-101.437	-88.6611	-25.4364	-177.58	-66.8277	35.6303	-183.598	-53.2077	67.0016	-195.105	-35.0324	33.1322	
78	0.65	-176.997	8.13196	28.1054	-148.829	6.74079	0.571825	-133.127	2.83085	-20.3646	-116.983	-1.80141	-37.7463	-163.903	-40.3634	-39.4452	-139.907	-37.4946	-55.7102	-110.612	-26.3447	-53.4472	-151.962	-63.8413	-29.8749	-119.961	-52.1964	-47.5722	-94.4306	-32.3155	-43.5201	-143.082	-76.8657	-14.9056	-111.585	-72.35	-32.6346	-91.0709	-54.166	-33.7173	-137.341	-87.196	14.3617	-117.18	-96.286	-6.79036	-100.886	-90.7206	-26.8263	-175.938	-61.5706	37.6378	-182.556	-51.6812	66.0491	-195.74	-31.2036	34.0274	
79	0.658333	-178.788	6.54025	27.5853	-153.046	10.8437	0.764739	-138.214	8.98659	-24.201	-122.483	5.38389	-41.7163	-167.487	-40.1871	-37.599	-138.206	-35.7368	-56.0265	-114.534	-23.3089	-56.5368	-152.448	-61.8902	-31.8275	-127.144	-51.4082	-48.7364	-97.2814	-32.0911	-44.035	-141.991	-75.604	-19.8449	-114.502	-70.0656	-34.046	-94.3293	-49.8524	-37.1205	-136.297	-86.8514	13.048	-119.397	-96.352	-2.82239	-102.987	-91.824	-25.7569	-174.283	-62.256	39.1757	-184.472	-51.1819	65.6226	-197.906	-32.9028	34.7569	
